<?xml version="1.0" encoding="iso-8859-1"?>
<!-- Generator: Adobe Illustrator 19.0.0, SVG Export Plug-In . SVG Version: 6.00 Build 0)  -->
<svg version="1.1" id="Capa_1" xmlns="http://www.w3.org/2000/svg" xmlns:xlink="http://www.w3.org/1999/xlink" x="0px" y="0px"
	 viewBox="0 0 512 512" style="enable-background:new 0 0 512 512;" xml:space="preserve">
<g>
	<g>
		<g>
			<path d="M256,70.771c-46.88,0-84.883,38.004-84.883,84.883c0,46.88,38.004,84.883,84.883,84.883
				c46.88,0,84.883-38.004,84.883-84.883C340.831,108.796,302.858,70.823,256,70.771z M256,223.471
				c-27.429,0-52.158-16.523-62.654-41.864c-10.497-25.341-4.695-54.511,14.701-73.906C227.442,88.305,256.611,82.503,281.952,93
				s41.864,35.225,41.864,62.655C323.774,193.091,293.436,223.428,256,223.471z"/>
			<path d="M256,101.313c-21.98-0.001-41.797,13.239-50.209,33.546s-3.763,43.682,11.78,59.224
				c15.542,15.542,38.917,20.192,59.224,11.78c20.307-8.412,33.547-28.228,33.546-50.209
				C310.308,125.656,285.998,101.346,256,101.313z M256,192.933c-15.077,0.001-28.67-9.081-34.441-23.01s-2.582-29.963,8.078-40.625
				s26.694-13.852,40.624-8.083c13.93,5.769,23.013,19.361,23.014,34.438C293.251,176.231,276.577,192.907,256,192.933z"/>
			<path d="M509.5,300.717l-76.792-76.793c-0.426-0.353-0.886-0.664-1.372-0.929c-1.339-0.955-2.928-1.497-4.572-1.559l-0.097-0.02
				c-0.291,0.042-0.58,0.1-0.865,0.174c-1.324-0.002-2.608,0.454-3.635,1.29c-0.423,0.207-0.828,0.45-1.208,0.728l-44.484,40.045
				c19.129-42.956,33.126-83.403,33.126-109.603c0-84.831-68.769-153.6-153.6-153.6s-153.6,68.769-153.6,153.6
				c0,26.201,13.996,66.647,33.125,109.603l-44.483-40.044c-0.376-0.272-0.774-0.512-1.191-0.716
				c-1.019-0.833-2.294-1.29-3.61-1.293c-0.299-0.079-0.602-0.14-0.909-0.183l-0.099,0.02c-2.233,0.004-4.372,0.899-5.942,2.487
				L2.5,300.717c-1.6,1.6-2.5,3.77-2.5,6.033v196.267c0,3.451,2.079,6.563,5.267,7.883c3.189,1.321,6.859,0.59,9.299-1.85
				l71.075-71.075l79.317,71.383c0.85,0.517,1.699,1.035,2.548,1.554c2.029,0.814,4.293,0.814,6.322,0
				c0.849-0.517,1.698-1.033,2.547-1.549l62.628-56.344c4.414,4.679,10.563,7.332,16.996,7.331c6.433,0,12.581-2.653,16.995-7.333
				l62.631,56.346c0.849,0.516,1.698,1.032,2.547,1.549c2.028,0.814,4.292,0.814,6.321,0c0.42-0.209,0.821-0.454,1.199-0.731
				c0.476-0.23,0.928-0.505,1.35-0.823l79.317-71.383l71.075,71.075c2.44,2.441,6.11,3.171,9.299,1.85
				c3.189-1.321,5.268-4.432,5.268-7.883V306.75C511.999,304.487,511.1,302.317,509.5,300.717z M76.8,422.683l-59.733,59.733
				V310.283L76.8,250.55V422.683z M162.133,483.857l-68.267-61.44V249.113l60.435,54.404c2.581,5.218,5.192,10.412,7.831,15.58
				V483.857z M179.2,483.861v-132.25c19.377,35.941,38.06,67.629,50.119,87.158L179.2,483.861z M332.8,483.861l-50.124-45.096
				c12.061-19.53,30.747-51.218,50.124-87.157V483.861z M261.642,440.183c-1.216,1.942-3.351,3.115-5.642,3.1
				c-2.293,0.014-4.43-1.159-5.65-3.1c-34.942-54.592-130.883-223.821-130.883-286.133c0-75.405,61.128-136.533,136.533-136.533
				S392.533,78.645,392.533,154.05C392.533,216.363,296.592,385.592,261.642,440.183z M418.133,422.418l-68.267,61.44V319.095
				c2.635-5.166,5.245-10.359,7.83-15.577l60.437-54.405V422.418z M494.933,482.417L435.2,422.683V250.55l59.733,59.733V482.417z"/>
		</g>
	</g>
</g>
<g>
</g>
<g>
</g>
<g>
</g>
<g>
</g>
<g>
</g>
<g>
</g>
<g>
</g>
<g>
</g>
<g>
</g>
<g>
</g>
<g>
</g>
<g>
</g>
<g>
</g>
<g>
</g>
<g>
</g>
</svg>
